<svg id="Camada_1" data-name="Camada 1" xmlns="http://www.w3.org/2000/svg" xmlns:xlink="http://www.w3.org/1999/xlink" viewBox="0 0 193.94 52"><defs><clipPath id="clip-path" transform="translate(-3.25 -13.87)"><path d="M48.45,22.87q-7.17,5.41-17.73,25.79C24.85,37.91,19.52,29.1,13,22.88l-.79-.32a27.48,27.48,0,0,0,3.43,43.31c4-4.09-.09-16.23.76-22.05.83,5.71,10.37,17.75,14.29,21.8C34.63,61.57,44.18,49.53,45,43.82c.85,5.82-3.29,18,.76,22.05A27.48,27.48,0,0,0,49.2,22.56l-.75.31" fill="none"/></clipPath><clipPath id="clip-path-2" transform="translate(-3.25 -13.87)"><path d="M15.1,18.74c10.3,1.33,14.29,13.83,15.62,22.94C32.05,32.57,37.29,19,46.34,18.74a27.48,27.48,0,0,0-31.24,0" fill="none"/></clipPath></defs><title>Sem título-1</title><g id="Logo"><g id="M"><g clip-path="url(#clip-path)"><rect y="8.69" width="54.94" height="43.31" fill="#fff"/></g></g><g clip-path="url(#clip-path-2)"><rect x="11.85" width="31.24" height="27.81" fill="#fff"/></g><path d="M91.46,44H95a.24.24,0,0,0,.28-.28V26.73a2.65,2.65,0,0,0-1.13-2.45,5.5,5.5,0,0,0-2.93-.71,12.55,12.55,0,0,0-2,.14,2.48,2.48,0,0,0-1.31.63,3.59,3.59,0,0,0-.8,1.48,22.65,22.65,0,0,0-.54,2.61l-1.48,9.62a1.69,1.69,0,0,1,0,.31q-.06.22-.12.48a1.91,1.91,0,0,1-.14.46c-.06.13-.1.2-.14.2s-.09-.07-.14-.2-.09-.29-.15-.46-.07-.34-.11-.51a3.15,3.15,0,0,0-.06-.37l-1.53-9.41A26,26,0,0,0,82,25.84a3.29,3.29,0,0,0-.8-1.48A2.26,2.26,0,0,0,80,23.71a11.76,11.76,0,0,0-2-.14,6.42,6.42,0,0,0-1.51.17,3.51,3.51,0,0,0-1.28.51,2.75,2.75,0,0,0-.91,1A3.19,3.19,0,0,0,74,26.81V43.68c0,.19.1.28.29.28H77.8c.19,0,.29-.09.29-.28V27.92c0-.13,0-.2.11-.2h.14c.08,0,.13.12.17.31s.1.28.12.32l2.84,13.54a4.14,4.14,0,0,0,.26.71,2,2,0,0,0,.51.68,3,3,0,0,0,.85.48,3.85,3.85,0,0,0,1.37.2,4.68,4.68,0,0,0,1.51-.2,2.67,2.67,0,0,0,.93-.56,2.45,2.45,0,0,0,.57-.77,3.63,3.63,0,0,0,.29-.88q.67-3.13,1.08-5.13c.28-1.34.52-2.44.71-3.29s.33-1.57.43-2.08.22-1,.34-1.51a3.28,3.28,0,0,0,.05-.34,3.58,3.58,0,0,0,.09-.45,2.65,2.65,0,0,0,.08-.43,2.25,2.25,0,0,1,.09-.26l.11-.2a.3.3,0,0,1,.23-.11c.1,0,.15.07.17.2a1.58,1.58,0,0,1,0,.23v15.5c0,.19.1.28.29.28" transform="translate(-3.25 -13.87)" fill="#fff"/><path d="M111.34,42.31a6.34,6.34,0,0,0,.71-.91,4.52,4.52,0,0,0,.51-1,5.88,5.88,0,0,0,.32-1.26,13.89,13.89,0,0,0,.11-1.82V23.85c0-.19-.1-.28-.29-.28h-3.55c-.19,0-.29.09-.29.28V37.71a2.23,2.23,0,0,1-.17.82,3.09,3.09,0,0,1-.42.83,2.72,2.72,0,0,1-.66.65,1.59,1.59,0,0,1-.88.26h-3a1.67,1.67,0,0,1-.91-.26,3.17,3.17,0,0,1-.62-.65,3.72,3.72,0,0,1-.4-.83,3.11,3.11,0,0,1-.11-.8V23.85c0-.19-.1-.28-.29-.28H97.86c-.19,0-.29.09-.29.28V38.47a5.68,5.68,0,0,0,.2,1.51,6.45,6.45,0,0,0,.6,1.31,6.52,6.52,0,0,0,.91,1.11,5.74,5.74,0,0,0,1,.8,4.62,4.62,0,0,0,1.37.56,7.08,7.08,0,0,0,1.76.2h3.33a7.2,7.2,0,0,0,1.36-.11c.42-.1.8-.2,1.14-.31s.7-.3,1.08-.49a4.12,4.12,0,0,0,1-.74" transform="translate(-3.25 -13.87)" fill="#fff"/><path d="M119.59,43.93a1.13,1.13,0,0,0,.34,0h8.25c.19,0,.28-.1.28-.29V40.55a.24.24,0,0,0-.28-.28h-7.71c-.74,0-1.11-.32-1.11-.94V23.85a.24.24,0,0,0-.28-.28h-3.56a.24.24,0,0,0-.28.28V39a5.53,5.53,0,0,0,1,3.59,4.75,4.75,0,0,0,3.36,1.36" transform="translate(-3.25 -13.87)" fill="#fff"/><path d="M129.49,27.27h4.63c.19,0,.29.09.29.28V43.68a.24.24,0,0,0,.28.28h3.56a.24.24,0,0,0,.28-.28V27.55c0-.19.1-.28.29-.28h4.63a.26.26,0,0,0,.29-.29V23.85c0-.19-.1-.28-.29-.28h-14c-.19,0-.29.09-.29.28V27a.26.26,0,0,0,.29.29" transform="translate(-3.25 -13.87)" fill="#fff"/><path d="M149.29,23.57h-3.56a.24.24,0,0,0-.28.28V43.68a.24.24,0,0,0,.28.28h3.56a.24.24,0,0,0,.28-.28V23.85a.24.24,0,0,0-.28-.28" transform="translate(-3.25 -13.87)" fill="#fff"/><path d="M151.62,27.27h4.63c.19,0,.29.09.29.28V43.68a.24.24,0,0,0,.28.28h3.56a.24.24,0,0,0,.28-.28V27.55c0-.19.1-.28.29-.28h4.64c.19,0,.28-.1.28-.29V23.85a.24.24,0,0,0-.28-.28h-14c-.19,0-.29.09-.29.28V27a.26.26,0,0,0,.29.29" transform="translate(-3.25 -13.87)" fill="#fff"/><path d="M181.29,23.57h-9.65a3.78,3.78,0,0,0-3,1.22,4.57,4.57,0,0,0-1,3.13V41a2.63,2.63,0,0,0,.23,1.08,4,4,0,0,0,.65.94,3.72,3.72,0,0,0,.91.71,2.27,2.27,0,0,0,1,.25h11c.19,0,.29-.09.29-.28V40.55c0-.19-.1-.28-.29-.28H172a.26.26,0,0,1-.29-.29V35.86a.26.26,0,0,1,.29-.29h8.73a.24.24,0,0,0,.28-.28V32a.25.25,0,0,0-.28-.28H172c-.19,0-.29-.09-.29-.28V27.58c0-.21.1-.31.29-.31h9.41a.26.26,0,0,0,.29-.29V23.85c0-.19-.12-.28-.37-.28" transform="translate(-3.25 -13.87)" fill="#fff"/><path d="M196.91,40.27H189.2c-.74,0-1.11-.32-1.11-.94V23.85c0-.19-.1-.28-.29-.28h-3.55c-.19,0-.29.09-.29.28V39a5.47,5.47,0,0,0,1,3.59,4.77,4.77,0,0,0,3.35,1.37,1.78,1.78,0,0,0,.34,0h8.26a.25.25,0,0,0,.28-.28V40.55a.25.25,0,0,0-.28-.28" transform="translate(-3.25 -13.87)" fill="#fff"/><path d="M149,60.24a10.25,10.25,0,0,1-2.12.16c-1.57,0-3.36-.84-3.36-3.94V54.69c0-3.13,1.79-3.94,3.36-3.94A13.71,13.71,0,0,1,149,51c.11,0,.2,0,.2.17v.65c0,.08,0,.14-.15.14h0c-.46,0-1.4-.12-2.14-.12-1.25,0-2.22.73-2.22,2.9v1.77c0,2.15,1,2.9,2.22,2.9.72,0,1.64-.06,2.1-.1h.05c.14,0,.21.06.21.2V60c0,.16-.12.23-.26.26" transform="translate(-3.25 -13.87)" fill="#fff"/><path d="M153.17,60.4c-1.87,0-2.83-1.23-2.83-3.11v-1c0-1.87,1-3.11,2.83-3.11S156,54.45,156,56.32v1c0,1.88-1,3.11-2.84,3.11m1.72-4.08c0-1.3-.52-2.13-1.72-2.13s-1.71.82-1.71,2.13v1c0,1.3.51,2.13,1.71,2.13s1.72-.81,1.72-2.13Z" transform="translate(-3.25 -13.87)" fill="#fff"/><path d="M162.66,60.32H162a.24.24,0,0,1-.23-.26V55.51c0-1-.25-1.33-1.11-1.33h-.91c-.87,0-1.11.37-1.11,1.33v4.55a.24.24,0,0,1-.23.26h-.66a.24.24,0,0,1-.23-.26V55.51a2,2,0,0,1,2.23-2.3h.91a2.05,2.05,0,0,1,2.23,2.3v4.55a.24.24,0,0,1-.23.26" transform="translate(-3.25 -13.87)" fill="#fff"/><path d="M167.72,51.54h-1.14c-.7,0-.84.11-.84.87v.89h2a.23.23,0,0,1,.25.23V54a.24.24,0,0,1-.25.23h-2v5.87a.26.26,0,0,1-.25.26h-.61a.26.26,0,0,1-.26-.26V52.41c0-1.37.77-1.78,2-1.78a7.88,7.88,0,0,1,1.15.08c.19,0,.26.1.26.22v.43q0,.18-.27.18" transform="translate(-3.25 -13.87)" fill="#fff"/><path d="M170.21,52.18h-.65a.26.26,0,0,1-.26-.26v-1a.26.26,0,0,1,.26-.25h.65a.25.25,0,0,1,.25.25v1a.26.26,0,0,1-.25.26m0,8.14h-.61a.26.26,0,0,1-.26-.26V53.55a.26.26,0,0,1,.26-.25h.61a.25.25,0,0,1,.25.25v6.51a.26.26,0,0,1-.25.26" transform="translate(-3.25 -13.87)" fill="#fff"/><path d="M177,60.11a7.36,7.36,0,0,1-2.16.29c-2,0-2.79-.65-2.79-2.1v-.12c0-1.4.8-2.06,3.07-2.06h1v-.51c0-1.07-.37-1.42-1.37-1.42-.83,0-1.44,0-1.95.08-.15,0-.29,0-.29-.21v-.44c0-.14.08-.22.26-.24a10.94,10.94,0,0,1,2-.17c1.77,0,2.49.89,2.49,2.4v4.22c0,.15,0,.24-.19.28m-.93-3.17h-1c-1.54,0-1.94.33-1.94,1.23v.12c0,.87.32,1.18,1.66,1.18a6.63,6.63,0,0,0,1.23-.11Z" transform="translate(-3.25 -13.87)" fill="#fff"/><path d="M184.08,60.32h-.66a.24.24,0,0,1-.23-.26V55.51c0-1-.24-1.33-1.11-1.33h-.91c-.87,0-1.11.37-1.11,1.33v4.55a.24.24,0,0,1-.23.26h-.66a.24.24,0,0,1-.23-.26V55.51a2,2,0,0,1,2.23-2.3h.91a2,2,0,0,1,2.23,2.3v4.55a.24.24,0,0,1-.23.26" transform="translate(-3.25 -13.87)" fill="#fff"/><path d="M190.13,60.27a10.13,10.13,0,0,1-1.6.13c-1.73,0-2.72-1.22-2.72-3.09v-1c0-1.88,1-3.1,2.72-3.1a9.06,9.06,0,0,1,1.6.14c.2,0,.25.1.25.28v.46c0,.13-.1.19-.22.19h0a13.07,13.07,0,0,0-1.58-.09c-1,0-1.59.68-1.59,2.12v1c0,1.42.56,2.11,1.59,2.11a11.3,11.3,0,0,0,1.58-.09h0a.2.2,0,0,1,.22.19V60c0,.17,0,.25-.25.29m-.9.64-1.44,1.61c-.11.13-.15.19-.29.19h-.69q-.12,0-.12-.09a.17.17,0,0,1,.06-.12L188,60.91c.12-.14.17-.19.32-.19h.84c.09,0,.14,0,.14.09a.12.12,0,0,1-.05.1" transform="translate(-3.25 -13.87)" fill="#fff"/><path d="M196.5,60.11a7.29,7.29,0,0,1-2.15.29c-2,0-2.8-.65-2.8-2.1v-.12c0-1.4.81-2.06,3.08-2.06h.94v-.51c0-1.07-.37-1.42-1.37-1.42-.82,0-1.44,0-1.95.08-.15,0-.29,0-.29-.21v-.44q0-.21.27-.24a10.81,10.81,0,0,1,2-.17c1.78,0,2.49.89,2.49,2.4v4.22c0,.15,0,.24-.19.28m-.93-3.17h-.94c-1.55,0-1.94.33-1.94,1.23v.12c0,.87.32,1.18,1.66,1.18a6.5,6.5,0,0,0,1.22-.11Z" transform="translate(-3.25 -13.87)" fill="#fff"/><path d="M97.24,60.11a7.24,7.24,0,0,1-2.15.29c-2,0-2.8-.65-2.8-2.1v-.12c0-1.4.81-2.06,3.08-2.06h.94v-.51c0-1.07-.37-1.42-1.36-1.42-.83,0-1.44,0-2,.08-.16,0-.3,0-.3-.21v-.44q0-.21.27-.24a10.85,10.85,0,0,1,2-.17c1.77,0,2.48.89,2.48,2.4v4.22c0,.15,0,.24-.19.28m-.93-3.17h-.94c-1.55,0-1.94.33-1.94,1.23v.12c0,.87.32,1.18,1.66,1.18a6.5,6.5,0,0,0,1.22-.11Z" transform="translate(-3.25 -13.87)" fill="#fff"/><path d="M81,60.24h-.81a.3.3,0,0,1-.33-.17L77.62,56.3h-.33c-.41,0-.72,0-1.39,0V60a.25.25,0,0,1-.23.26H75a.24.24,0,0,1-.23-.26V51.12c0-.18.08-.26.3-.28.55-.06,1.5-.1,2.23-.1,2,0,3.55.67,3.55,2.72v.09a2.49,2.49,0,0,1-2,2.56L81.16,60a.3.3,0,0,1,0,.11.17.17,0,0,1-.17.17M79.7,53.46c0-1.27-.82-1.68-2.41-1.68-.39,0-1.09,0-1.39,0v3.47l1.39,0c1.56,0,2.41-.39,2.41-1.76Z" transform="translate(-3.25 -13.87)" fill="#fff"/><path d="M87.5,57.11H83.26v.18c0,1.51.6,2.06,1.76,2.06a17.22,17.22,0,0,0,2.26-.14h.06a.18.18,0,0,1,.2.18v.43c0,.16-.05.25-.25.29a11.43,11.43,0,0,1-2.27.22c-1.45,0-2.87-.69-2.87-3V56.15a2.66,2.66,0,0,1,2.81-3c1.85,0,2.79,1.17,2.79,3v.68a.25.25,0,0,1-.25.28m-.88-1c0-1.44-.55-2-1.66-2s-1.7.62-1.7,2v.11h3.36Z" transform="translate(-3.25 -13.87)" fill="#fff"/><path d="M90.28,60.24h-.66a.25.25,0,0,1-.23-.26V51a.23.23,0,0,1,.23-.24h.66a.23.23,0,0,1,.23.24v9a.25.25,0,0,1-.23.26" transform="translate(-3.25 -13.87)" fill="#fff"/><path d="M103.27,60.19a9.88,9.88,0,0,1-1.59.14c-1.72,0-2.7-1.22-2.7-3.08v-1c0-1.86,1-3.08,2.7-3.08a10,10,0,0,1,1.59.14c.2,0,.25.1.25.28v.46a.2.2,0,0,1-.22.19h0a11.16,11.16,0,0,0-1.57-.09c-1,0-1.58.67-1.58,2.1v1c0,1.42.56,2.1,1.58,2.1a11.16,11.16,0,0,0,1.57-.09h0a.2.2,0,0,1,.22.19v.46c0,.16,0,.24-.25.28m-.89.74L101,62.53c-.12.13-.15.19-.29.19H100c-.07,0-.11,0-.11-.09a.16.16,0,0,1,0-.12l1.23-1.58c.11-.13.16-.19.31-.19h.84c.09,0,.14,0,.14.09a.12.12,0,0,1-.05.1" transform="translate(-3.25 -13.87)" fill="#fff"/><path d="M107.07,60.33c-1.87,0-2.82-1.23-2.82-3.1v-1c0-1.86,1-3.09,2.82-3.09s2.82,1.23,2.82,3.09v1c0,1.87-1,3.1-2.82,3.1m1.14-8a1.32,1.32,0,0,1-.81-.27l-.78-.62c-.3-.24-.36-.28-.52-.28s-.39.21-.39.59V52a.23.23,0,0,1-.21.22h-.4a.22.22,0,0,1-.2-.22v-.26c0-.92.46-1.39,1.2-1.39a1.27,1.27,0,0,1,.77.31l.89.71a.89.89,0,0,0,.45.18c.25,0,.38-.13.38-.56v-.29a.22.22,0,0,1,.21-.22h.4a.21.21,0,0,1,.2.22V51c0,.87-.34,1.33-1.19,1.33m.57,4c0-1.29-.52-2.11-1.71-2.11s-1.7.81-1.7,2.11v1c0,1.3.51,2.12,1.7,2.12s1.71-.81,1.71-2.12Z" transform="translate(-3.25 -13.87)" fill="#fff"/><path d="M116.52,57.11h-4.24v.18c0,1.51.59,2.06,1.76,2.06a17.07,17.07,0,0,0,2.25-.14h.06c.11,0,.21,0,.21.18v.43c0,.16,0,.25-.26.29a11.4,11.4,0,0,1-2.26.22c-1.46,0-2.88-.69-2.88-3V56.15a2.66,2.66,0,0,1,2.81-3c1.85,0,2.79,1.17,2.79,3v.68c0,.17-.09.28-.24.28m-.89-1c0-1.44-.54-2-1.66-2s-1.69.62-1.69,2v.11h3.35Z" transform="translate(-3.25 -13.87)" fill="#fff"/><path d="M120.32,60.33a9.94,9.94,0,0,1-2-.19c-.17,0-.27-.12-.27-.26v-.44a.21.21,0,0,1,.23-.19h0a19.1,19.1,0,0,0,2,.14c.82,0,1.25-.22,1.25-.9,0-.38-.22-.62-.95-1.05l-1.28-.76a2.17,2.17,0,0,1-1.29-1.81c0-1.32,1-1.69,2.3-1.69a12,12,0,0,1,2,.17c.17,0,.24.11.24.25V54a.19.19,0,0,1-.21.21h0c-.44,0-1.26-.1-2-.1s-1.18.09-1.18.74c0,.38.29.62.87,1l1.26.75c1,.62,1.39,1.16,1.39,1.91,0,1.29-1,1.84-2.37,1.84" transform="translate(-3.25 -13.87)" fill="#fff"/><path d="M132.18,60.11a12.41,12.41,0,0,1-2.33.22c-1.89,0-2.76-1.23-2.76-3.13v-.91c0-2,.91-3.11,2.76-3.11a9.08,9.08,0,0,1,1.48.13V51a.24.24,0,0,1,.24-.24h.65a.23.23,0,0,1,.22.24v8.87c0,.16,0,.25-.26.29m-.85-5.86a9.33,9.33,0,0,0-1.48-.09c-1.24,0-1.65.77-1.65,2.13v.91c0,1.38.39,2.15,1.65,2.15.43,0,1.05,0,1.48-.07Z" transform="translate(-3.25 -13.87)" fill="#fff"/><path d="M139.3,57.11h-4.24v.18c0,1.51.59,2.06,1.76,2.06a17.07,17.07,0,0,0,2.25-.14h.06c.11,0,.21,0,.21.18v.43c0,.16-.05.25-.26.29a11.4,11.4,0,0,1-2.26.22c-1.46,0-2.88-.69-2.88-3V56.15a2.66,2.66,0,0,1,2.81-3c1.85,0,2.79,1.17,2.79,3v.68c0,.17-.09.28-.24.28m-.89-1c0-1.44-.54-2-1.66-2s-1.69.62-1.69,2v.11h3.35Z" transform="translate(-3.25 -13.87)" fill="#fff"/></g></svg>